<svg height="30" viewBox="0 0 111 30" width="111" xmlns="http://www.w3.org/2000/svg"><g fill="none"><path d="m0 0h111v30h-111z" fill="#fff"/><path d="m14.86 0h29.651v29.651h-29.651z" fill="#fff"/><path d="m59.337 14.86-14.825-14.86v29.686zm-29.651 0 14.826-14.86h-29.652zm-29.686 0 14.86 14.826v-29.686zm29.686 0-14.826 14.826h29.652z" fill="#db0011"/><path d="m72.349 15.733h-5.372v5.302h-2.687v-12.419h2.686v5.093h5.372v-5.093h2.686v12.419h-2.686zm9.174 5.547c-2.686 0-4.883-1.082-4.918-4.047h2.686c.035 1.325.802 2.127 2.267 2.127 1.082 0 2.337-.558 2.337-1.779 0-.976-.837-1.255-2.232-1.674l-.907-.244c-1.954-.558-3.907-1.326-3.907-3.558 0-2.756 2.581-3.698 4.918-3.698 2.407 0 4.5.837 4.535 3.593h-2.686c-.104-1.116-.767-1.78-2.023-1.78-1.012 0-1.988.524-1.988 1.64 0 .907.837 1.187 2.581 1.745l1.047.314c2.127.662 3.488 1.395 3.488 3.488-.035 2.79-2.756 3.872-5.198 3.872zm6.697-12.629h4.327c.802-.035 1.639 0 2.441.14 1.5.349 2.652 1.325 2.652 3 0 1.604-1.012 2.407-2.477 2.79 1.674.314 2.93 1.152 2.93 3 0 2.826-2.79 3.454-4.953 3.454h-4.884l-.036-12.385zm4.327 5.163c1.186 0 2.406-.244 2.406-1.674 0-1.291-1.116-1.64-2.232-1.64h-1.884v3.314zm.244 5.372c1.256 0 2.476-.279 2.476-1.814s-1.046-1.814-2.337-1.814h-2.128v3.628zm12.279 2.094c-4.012 0-5.79-2.547-5.79-6.35 0-3.802 1.987-6.558 5.93-6.558 2.476 0 4.883 1.116 4.953 3.907h-2.79c-.14-1.256-.978-1.884-2.164-1.884-2.442 0-3.174 2.617-3.174 4.605s.732 4.29 3.07 4.29c1.22 0 2.128-.662 2.302-1.918h2.79c-.278 2.86-2.546 3.907-5.127 3.907z" fill="#000"/></g></svg>