<svg viewBox="0 0 280 109" version="1.1" xmlns="http://www.w3.org/2000/svg" xmlns:xlink="http://www.w3.org/1999/xlink" class="custom_color">
	<!-- Generator: Sketch 58 (84663) - https://sketch.com -->
	<title>logos/horizontal/on-white</title>
	<desc>Created with Sketch.</desc>
	<g id="Sticker-sheet" stroke="none" stroke-width="1" fill="none" fill-rule="evenodd">
		<g id="logos" transform="translate(-140.000000, -1084.000000)">
			<g id="logos/horizontal/on-white" transform="translate(140.000000, 1084.000000)">
				<g id="SM_White_Horizontal">
					<path d="M272.744086,70.2676712 C272.744086,68.3544963 274.307719,66.8035616 276.236559,66.8035616 C278.15314,66.8118091 279.70166,68.3566635 279.698892,70.2576953 C279.696117,72.158727 278.143099,73.6991326 276.226501,73.7018854 C274.309904,73.7046309 272.752401,72.1686871 272.744086,70.2676712 Z M279.096774,70.2676712 C279.063685,68.709044 277.768843,67.4689215 276.197259,67.4906876 C274.625675,67.5124536 273.366247,68.7879522 273.377046,70.3468882 C273.387844,71.9058241 274.664822,73.164038 276.236559,73.1643836 C277.016348,73.1910318 277.771303,72.890228 278.315814,72.3359271 C278.860324,71.7816262 279.143882,71.025243 279.096774,70.2527397 L279.096774,70.2676712 Z M275.047312,68.5206849 L276.251613,68.5206849 C277.049462,68.5206849 277.576344,68.8491781 277.576344,69.5509589 L277.576344,69.5509589 C277.589337,69.9861809 277.294802,70.3715613 276.868817,70.4767123 L277.772043,71.969863 L276.989247,71.969863 L276.16129,70.6409589 L275.8,70.6409589 L275.8,71.969863 L275.047312,71.969863 L275.047312,68.5206849 Z M276.236559,70.0138356 C276.627957,70.0138356 276.83871,69.849589 276.83871,69.5210959 L276.83871,69.5210959 C276.83871,69.1627397 276.612903,69.0432877 276.236559,69.0432877 L275.8,69.0432877 L275.8,70.0287671 L276.236559,70.0138356 Z" id="Shape" fill="#5078A1" fill-rule="nonzero"></path>
					<rect id="Rectangle" fill="#5078A1" fill-rule="nonzero" x="157.251613" y="10.4669863" width="5.20860215" height="46.5265753"></rect>
					<rect id="Rectangle" fill="#5078A1" fill-rule="nonzero" x="174.623656" y="10.4669863" width="5.20860215" height="46.5265753"></rect>
					<rect id="Rectangle" fill="#5078A1" fill-rule="nonzero" x="191.995699" y="25.9808219" width="5.20860215" height="31.0127397"></rect>
					<path d="M206.356989,41.9127397 L206.356989,41.4349315 C206.356989,32.1326027 212.378495,25.6523288 220.898925,25.6523288 C228.094624,25.6523288 234.868817,29.9526027 234.868817,40.9720548 L234.868817,42.5547945 L211.460215,42.5547945 C211.701075,49.5726027 215.088172,53.4547945 221.44086,53.4547945 C226.243011,53.4547945 229.043011,51.6928767 229.690323,48.0943836 L234.627957,48.0943836 C233.55914,54.2909589 228.380645,57.5310959 221.380645,57.5310959 C212.589247,57.5310959 206.326882,51.3942466 206.326882,41.9127397 L206.356989,41.9127397 Z M229.780645,38.6128767 C229.313978,32.2520548 225.987097,29.6539726 220.868817,29.6539726 C215.750538,29.6539726 212.43871,33.0732877 211.610753,38.6128767 L229.780645,38.6128767 Z" id="Shape" fill="#5078A1" fill-rule="nonzero"></path>
					<path d="M122.025806,48.4527397 C122.025806,41.3154795 129.552688,38.9115068 137.591398,38.9115068 L142.107527,38.9115068 L142.107527,36.6717808 C142.107527,31.7742466 140.210753,29.7136986 135.453763,29.7136986 C131.178495,29.7136986 128.8,31.4905479 128.31828,35.2532877 L123.335484,35.2532877 C123.982796,28.250411 129.627957,25.6523288 135.634409,25.6523288 C141.64086,25.6523288 146.969892,28.0712329 146.969892,36.6717808 L146.969892,56.9935616 L142.047312,56.9935616 L142.047312,53.1113699 C139.79084,56.1305007 136.149994,57.8153893 132.367742,57.5908219 C126.602151,57.5908219 122.025806,54.8135616 122.025806,48.5124658 M142.047312,46.2876712 L142.047312,42.3756164 L137.772043,42.3756164 C131.524731,42.3756164 126.948387,43.8687671 126.948387,48.4527397 C126.948387,51.6331507 128.453763,53.6339726 132.834409,53.6339726 C138.058065,53.6339726 142.047312,50.9910959 142.047312,46.1682192" id="Shape" fill="#5078A1" fill-rule="nonzero"></path>
					<path d="M206.236559,89.8130137 C206.236559,82.6757534 213.83871,80.2717808 221.802151,80.2717808 L226.31828,80.2717808 L226.31828,78.0320548 C226.31828,73.1345205 224.421505,71.0739726 219.664516,71.0739726 C215.389247,71.0739726 213.010753,72.8358904 212.529032,76.6135616 L207.591398,76.6135616 C208.23871,69.5957534 213.883871,67.0126027 219.890323,67.0126027 C225.896774,67.0126027 231.225806,69.4165753 231.225806,78.0320548 L231.225806,98.3538356 L226.303226,98.3538356 L226.303226,94.4567123 C224.050362,97.4802226 220.406974,99.1662875 216.623656,98.9361644 C210.858065,98.9361644 206.28172,96.1738356 206.28172,89.8727397 M226.303226,87.6330137 L226.303226,83.7358904 L222.027957,83.7358904 C215.780645,83.7358904 211.219355,85.2290411 211.219355,89.8130137 C211.219355,92.9934247 212.724731,94.9942466 217.090323,94.9942466 C222.313978,94.9942466 226.303226,92.3364384 226.303226,87.5284932" id="Shape" fill="#5078A1" fill-rule="nonzero"></path>
					<path d="M240.197849,83.2730137 L240.197849,82.7952055 C240.197849,73.4928767 246.219355,67.0126027 254.754839,67.0126027 C261.935484,67.0126027 268.709677,71.3128767 268.709677,82.3323288 L268.709677,83.9150685 L245.376344,83.9150685 C245.617204,90.9328767 249.004301,94.8150685 255.356989,94.8150685 C260.174194,94.8150685 262.883871,93.0531507 263.621505,89.4546575 L268.544086,89.4546575 C267.475269,95.6363014 262.311828,98.8764384 255.296774,98.8764384 C246.505376,98.8764384 240.243011,92.7545205 240.243011,83.2730137 L240.197849,83.2730137 Z M263.696774,79.9731507 C263.230108,73.6123288 259.903226,71.0142466 254.8,71.0142466 C249.696774,71.0142466 246.354839,74.4335616 245.526882,79.9731507 L263.696774,79.9731507 Z" id="Shape" fill="#5078A1" fill-rule="nonzero"></path>
					<path d="M89.6301075,47.5120548 L94.4322581,47.5120548 C94.7935484,51.1553425 96.7505376,53.4846575 101.748387,53.4846575 C106.445161,53.4846575 108.522581,51.9019178 108.522581,48.6020548 C108.522581,45.3021918 106.083871,44.3017808 101.266667,43.4208219 C93.1827957,41.9276712 90.4580645,39.7028767 90.4580645,34.3424658 C90.4580645,28.6236986 96.1032258,25.6821918 100.995699,25.6821918 C106.580645,25.6821918 111.397849,27.9219178 112.225806,34.6410959 L107.453763,34.6410959 C106.731183,31.1919178 104.834409,29.7136986 100.860215,29.7136986 C97.2924731,29.7136986 94.9741935,31.4756164 94.9741935,34.1931507 C94.9741935,36.9106849 96.4795699,38.0753425 102.215054,39.0757534 C108.643011,40.2553425 113.144086,41.6738356 113.144086,48.2138356 C113.144086,53.8131507 109.290323,57.5908219 101.748387,57.5908219 C94.2064516,57.5908219 89.855914,53.8728767 89.5698925,47.5717808" id="Path" fill="#5078A1" fill-rule="nonzero"></path>
					<path d="M191,12.8818182 C191,10.6927623 192.790861,8.91818182 195,8.91818182 C197.209139,8.91818182 199,10.6927623 199,12.8818182 C199,15.0708741 197.209139,16.8454545 195,16.8454545 C192.798702,16.8268101 191.018816,15.0631046 191,12.8818182" id="Path" fill="#F26D6B" fill-rule="nonzero"></path>
					<path d="M66.5376344,12.8818398 C66.5376344,11.2771642 67.5140885,9.83082641 69.0108915,9.2183589 C70.5076945,8.6058914 72.2294912,8.948155 73.372092,10.0852906 C74.5146929,11.2224263 74.8526236,12.9300382 74.228049,14.4105621 C73.6034743,15.891086 72.1396442,16.8523638 70.5202611,16.8454545 C68.3218597,16.8266569 66.5470291,15.0603155 66.5376344,12.8818398" id="Path" fill="#F26D6B" fill-rule="nonzero"></path>
					<path d="M187.344086,67.0126027 C183.810028,66.9434171 180.524164,68.8082638 178.793548,71.8653425 C177.498059,68.8514197 174.478474,66.9277137 171.176344,67.0126027 C167.5249,66.916773 164.105763,68.7837385 162.234409,71.8952055 L162.234409,67.3261644 L157.236559,67.3261644 L157.236559,98.3538356 L162.460215,98.3538356 L162.460215,80.4360274 C162.460215,74.9860274 166.163441,71.4771233 169.27957,71.4771233 C173.088172,71.4771233 174.623656,73.5078082 174.623656,78.9428767 L174.623656,98.3538356 L179.832258,98.3538356 L179.832258,80.4360274 C179.832258,74.8964384 182.48172,71.4771233 186.245161,71.4771233 C190.008602,71.4771233 191.995699,73.5078082 191.995699,78.9428767 L191.995699,98.3538356 L197.204301,98.3538356 L197.204301,79.0473973 C197.204301,70.0884932 192.582796,67.0126027 187.344086,67.0126027" id="Path" fill="#5078A1" fill-rule="nonzero"></path>
					<path d="M39.9526882,78.4053425 L34.744086,78.4053425 C34.744086,49.5576712 41.2623656,33.700411 58.6043011,19.6349315 L61.8258065,23.5320548 C45.688172,36.6419178 39.9526882,51.0060274 39.9526882,78.4053425" id="Path" fill="#94ADC6" fill-rule="nonzero"></path>
					<rect id="Rectangle" fill="#94ADC6" fill-rule="nonzero" x="34.744086" y="76.6468182" width="5.20860215" height="21.4630909"></rect>
					<rect id="Rectangle" fill="#94ADC6" fill-rule="nonzero" x="17.372043" y="0" width="5" height="108.716301"></rect>
					<rect id="Rectangle" fill="#94ADC6" fill-rule="nonzero" x="0" y="44.5909091" width="5" height="53.5090909"></rect>
				</g>
			</g>
		</g>
	</g>
</svg>